<svg width="161" height="40" viewBox="0 0 161 40" fill="none" xmlns="http://www.w3.org/2000/svg">
<path d="M22.2695 11.4302C22.3798 11.3205 22.4675 11.1902 22.5274 11.0467C22.5874 10.9032 22.6185 10.7492 22.6189 10.5937C22.6194 10.4382 22.5892 10.2841 22.5301 10.1402C22.471 9.99631 22.3842 9.86548 22.2745 9.75517C22.1649 9.64486 22.0346 9.55723 21.891 9.49728C21.7475 9.43733 21.5936 9.40623 21.4381 9.40577C21.2825 9.4053 21.1284 9.43548 20.9845 9.49457C20.8407 9.55366 20.7098 9.64052 20.5995 9.75017L20.0295 10.3202C19.8081 10.543 19.6842 10.8446 19.6851 11.1587C19.6861 11.4728 19.8117 11.7737 20.0345 11.9952C20.2573 12.2166 20.5589 12.3405 20.8731 12.3396C21.1872 12.3386 21.4881 12.213 21.7095 11.9902L22.2695 11.4302ZM4.19953 12.1802C3.73953 12.6402 2.99953 12.6402 2.52953 12.1802L1.96953 11.6202C1.74674 11.3987 1.62106 11.0978 1.62012 10.7837C1.61918 10.4696 1.74307 10.168 1.96453 9.94517C2.18598 9.72239 2.48687 9.5967 2.80099 9.59577C3.11511 9.59483 3.41674 9.71872 3.63953 9.94017L4.20953 10.5102C4.66953 10.9702 4.66953 11.7102 4.20953 12.1802H4.19953ZM4.19953 27.8202C4.08993 27.7104 3.95977 27.6233 3.81649 27.5639C3.67322 27.5045 3.51963 27.4739 3.36453 27.4739C3.20942 27.4739 3.05584 27.5045 2.91256 27.5639C2.76928 27.6233 2.63912 27.7104 2.52953 27.8202L1.96953 28.3802C1.74674 28.6016 1.62106 28.9025 1.62012 29.2166C1.61918 29.5308 1.74307 29.8324 1.96453 30.0552C2.18598 30.278 2.48687 30.4036 2.80099 30.4046C3.11511 30.4055 3.41674 30.2816 3.63953 30.0602L4.20953 29.4902C4.66953 29.0302 4.66953 28.2902 4.20953 27.8202H4.19953ZM22.2695 28.5702C22.3798 28.6798 22.4675 28.8101 22.5274 28.9537C22.5874 29.0972 22.6185 29.2511 22.6189 29.4066C22.6194 29.5622 22.5892 29.7163 22.5301 29.8602C22.471 30.004 22.3842 30.1349 22.2745 30.2452C22.1649 30.3555 22.0346 30.4431 21.891 30.5031C21.7475 30.563 21.5936 30.5941 21.4381 30.5946C21.2825 30.595 21.1284 30.5649 20.9845 30.5058C20.8407 30.4467 20.7098 30.3598 20.5995 30.2502L20.0295 29.6802C19.8424 29.4513 19.7471 29.1609 19.7623 28.8657C19.7775 28.5704 19.9021 28.2914 20.1118 28.0829C20.3215 27.8745 20.6013 27.7516 20.8966 27.7381C21.192 27.7247 21.4818 27.8217 21.7095 28.0102L22.2695 28.5702Z" fill="url(#paint0_linear_577_209)"/>
<g clip-path="url(#clip0_577_209)">
<path d="M0 9.32C0 6.93413 1.93413 5 4.32 5H25.68C28.0659 5 30 6.93413 30 9.32V30.68C30 33.0659 28.0659 35 25.68 35H4.32C1.93413 35 0 33.0659 0 30.68V9.32Z" fill="black"/>
<path d="M6.14643 11.6126C6.14643 11.1412 5.76426 10.759 5.29281 10.759C4.82139 10.759 4.43919 11.1412 4.43919 11.6126C4.43919 12.0841 4.82139 12.4663 5.29281 12.4663V13.0354C4.50708 13.0354 3.87012 12.3984 3.87012 11.6126C3.87012 10.8269 4.50708 10.1899 5.29281 10.1899C6.07857 10.1899 6.71553 10.8269 6.71553 11.6126C6.71553 12.3984 6.07857 13.0354 5.29281 13.0354V12.4663C5.76426 12.4663 6.14643 12.0841 6.14643 11.6126Z" fill="white"/>
<path d="M12.2929 17.7962C12.2929 17.3248 11.9107 16.9426 11.4393 16.9426C10.9679 16.9426 10.5857 17.3248 10.5857 17.7962C10.5857 18.2677 10.9679 18.6499 11.4393 18.6499V19.2189C10.6536 19.2189 10.0166 18.582 10.0166 17.7962C10.0166 17.0105 10.6536 16.3735 11.4393 16.3735C12.2251 16.3735 12.862 17.0105 12.862 17.7962C12.862 18.582 12.2251 19.2189 11.4393 19.2189V18.6499C11.9107 18.6499 12.2929 18.2677 12.2929 17.7962Z" fill="white"/>
<path d="M12.998 24.6854C12.998 24.214 12.6158 23.8318 12.1444 23.8318C11.6729 23.8318 11.2907 24.214 11.2907 24.6854C11.2907 25.1568 11.6729 25.539 12.1444 25.539V26.1081C11.3586 26.1081 10.7217 25.4711 10.7217 24.6854C10.7217 23.8997 11.3586 23.2627 12.1444 23.2627C12.9301 23.2627 13.5671 23.8997 13.5671 24.6854C13.5671 25.4711 12.9301 26.1081 12.1444 26.1081V25.539C12.6158 25.539 12.998 25.1568 12.998 24.6854Z" fill="white"/>
<path d="M20.3789 28.3573C20.3789 27.8858 19.9967 27.5037 19.5253 27.5037C19.0538 27.5037 18.6716 27.8858 18.6716 28.3573C18.6716 28.8287 19.0538 29.2109 19.5253 29.2109V29.78C18.7395 29.78 18.1025 29.143 18.1025 28.3573C18.1025 27.5715 18.7395 26.9346 19.5253 26.9346C20.311 26.9346 20.9479 27.5715 20.9479 28.3573C20.9479 29.143 20.311 29.78 19.5253 29.78V29.2109C19.9967 29.2109 20.3789 28.8287 20.3789 28.3573Z" fill="white"/>
<path d="M25.5605 22.078C25.5605 21.6065 25.1783 21.2243 24.7069 21.2243C24.2355 21.2243 23.8533 21.6065 23.8533 22.078C23.8533 22.5494 24.2355 22.9316 24.7069 22.9316V23.5007C23.9211 23.5007 23.2842 22.8637 23.2842 22.078C23.2842 21.2922 23.9211 20.6553 24.7069 20.6553C25.4926 20.6553 26.1296 21.2922 26.1296 22.078C26.1296 22.8637 25.4926 23.5007 24.7069 23.5007V22.9316C25.1783 22.9316 25.5605 22.5494 25.5605 22.078Z" fill="white"/>
<path d="M24.9619 18.0834C24.9619 17.6119 24.5797 17.2297 24.1083 17.2297C23.6368 17.2297 23.2546 17.6119 23.2546 18.0834C23.2546 18.5548 23.6368 18.937 24.1083 18.937V19.5061C23.3225 19.5061 22.6855 18.8691 22.6855 18.0834C22.6855 17.2976 23.3225 16.6606 24.1083 16.6606C24.894 16.6606 25.531 17.2976 25.531 18.0834C25.531 18.8691 24.894 19.5061 24.1083 19.5061V18.937C24.5797 18.937 24.9619 18.5548 24.9619 18.0834Z" fill="white"/>
<path d="M21.9297 20.9539C21.9297 20.4825 21.5475 20.1003 21.076 20.1003C20.6046 20.1003 20.2224 20.4825 20.2224 20.9539C20.2224 21.4254 20.6046 21.8076 21.076 21.8076V22.3766C20.2903 22.3766 19.6533 21.7397 19.6533 20.9539C19.6533 20.1682 20.2903 19.5312 21.076 19.5312C21.8618 19.5312 22.4987 20.1682 22.4987 20.9539C22.4987 21.7397 21.8618 22.3766 21.076 22.3766V21.8076C21.5475 21.8076 21.9297 21.4254 21.9297 20.9539Z" fill="white"/>
<path d="M23.9182 22.5464L24.3511 22.9145L20.6057 27.4746L20.1729 27.1064L23.9182 22.5464Z" fill="white"/>
<path d="M23.0648 18.7192L23.4526 19.1361L22.0871 20.4517L21.6992 20.0348L23.0648 18.7192Z" fill="white"/>
<path d="M19.772 21.2119L19.9858 21.7432L13.4598 24.4621L13.2461 23.9308L19.772 21.2119Z" fill="white"/>
<path d="M11.2471 18.952L11.8084 18.8945L12.2786 23.6545L11.7173 23.7118L11.2471 18.952Z" fill="white"/>
<path d="M5.94043 12.7736L6.33835 12.3667L10.8371 16.9221L10.4392 17.329L5.94043 12.7736Z" fill="white"/>
<path d="M24.04 19.3109L24.5958 19.2124L24.862 20.7677L24.3062 20.8662L24.04 19.3109Z" fill="white"/>
</g>
<path d="M144.666 26.2812C145.01 26.3594 145.393 26.4297 145.814 26.4922C146.174 26.5469 146.596 26.5938 147.08 26.6328C147.572 26.6719 148.111 26.6914 148.697 26.6914C149.338 26.6914 149.846 26.668 150.221 26.6211C150.596 26.5742 150.877 26.4961 151.064 26.3867C151.26 26.2695 151.385 26.1133 151.439 25.918C151.494 25.7227 151.521 25.4766 151.521 25.1797C151.521 25.0234 151.51 24.8828 151.486 24.7578C151.471 24.625 151.424 24.5078 151.346 24.4062C151.275 24.2969 151.166 24.207 151.018 24.1367C150.877 24.0586 150.686 24 150.443 23.9609L147.854 23.4805C147.26 23.3789 146.76 23.2422 146.354 23.0703C145.947 22.8984 145.619 22.6719 145.369 22.3906C145.127 22.1016 144.951 21.75 144.842 21.3359C144.74 20.9141 144.689 20.4023 144.689 19.8008C144.689 18.5039 145.119 17.5391 145.979 16.9062C146.846 16.2656 148.08 15.9453 149.682 15.9453C150.244 15.9453 150.76 15.9805 151.229 16.0508C151.705 16.1133 152.119 16.1875 152.471 16.2734C152.877 16.3672 153.248 16.4727 153.584 16.5898V18.582C153.209 18.5195 152.818 18.4648 152.412 18.418C152.061 18.3789 151.666 18.3398 151.229 18.3008C150.799 18.2617 150.361 18.2422 149.916 18.2422C149.408 18.2422 148.986 18.2656 148.65 18.3125C148.314 18.3516 148.049 18.4219 147.854 18.5234C147.658 18.625 147.521 18.7578 147.443 18.9219C147.365 19.0781 147.326 19.2773 147.326 19.5195C147.326 19.707 147.342 19.875 147.373 20.0234C147.404 20.1719 147.471 20.3047 147.572 20.4219C147.674 20.5391 147.814 20.6406 147.994 20.7266C148.174 20.8125 148.416 20.8828 148.721 20.9375L151.404 21.4414C151.928 21.543 152.369 21.6758 152.729 21.8398C153.096 22.0039 153.393 22.2266 153.619 22.5078C153.846 22.7891 154.01 23.1484 154.111 23.5859C154.213 24.0156 154.264 24.5469 154.264 25.1797C154.264 25.7812 154.201 26.3203 154.076 26.7969C153.959 27.2734 153.717 27.6758 153.35 28.0039C152.982 28.332 152.463 28.582 151.791 28.7539C151.119 28.9336 150.232 29.0234 149.131 29.0234C148.521 29.0234 147.947 28.9805 147.408 28.8945C146.869 28.8164 146.396 28.7266 145.99 28.625C145.514 28.5078 145.072 28.375 144.666 28.2266V26.2812Z" fill="#23262D"/>
<path d="M132.368 22.4727C132.368 21.3008 132.509 20.3047 132.79 19.4844C133.079 18.6641 133.466 18 133.95 17.4922C134.442 16.9766 135.017 16.6016 135.673 16.3672C136.329 16.1328 137.028 16.0156 137.771 16.0156C138.341 16.0156 138.853 16.0547 139.306 16.1328C139.759 16.2031 140.146 16.2812 140.466 16.3672C140.841 16.4688 141.165 16.582 141.438 16.707V18.6289C141.173 18.6055 140.884 18.5781 140.571 18.5469C140.306 18.5312 140.005 18.5156 139.669 18.5C139.333 18.4766 138.981 18.4648 138.614 18.4648C138.028 18.4648 137.524 18.5156 137.103 18.6172C136.681 18.7188 136.337 18.9141 136.071 19.2031C135.806 19.4844 135.61 19.8867 135.485 20.4102C135.36 20.9258 135.298 21.6055 135.298 22.4492C135.298 23.3086 135.368 24.0039 135.509 24.5352C135.657 25.0664 135.88 25.4805 136.177 25.7773C136.474 26.0664 136.845 26.2617 137.29 26.3633C137.735 26.457 138.263 26.5039 138.872 26.5039C139.255 26.5039 139.606 26.4961 139.927 26.4805C140.255 26.457 140.54 26.4297 140.782 26.3984C141.063 26.3672 141.317 26.3281 141.544 26.2812V28.2266C141.294 28.3672 140.989 28.4922 140.63 28.6016C140.325 28.6953 139.942 28.7812 139.481 28.8594C139.021 28.9375 138.481 28.9766 137.864 28.9766C137.106 28.9766 136.392 28.8711 135.72 28.6602C135.056 28.457 134.474 28.1055 133.974 27.6055C133.481 27.1055 133.091 26.4414 132.802 25.6133C132.513 24.7773 132.368 23.7305 132.368 22.4727Z" fill="#23262D"/>
<path d="M117.727 22.4727C117.727 21.4258 117.84 20.5 118.066 19.6953C118.293 18.8828 118.645 18.1992 119.121 17.6445C119.605 17.0898 120.215 16.668 120.949 16.3789C121.684 16.0898 122.562 15.9453 123.586 15.9453C124.609 15.9453 125.488 16.0898 126.223 16.3789C126.965 16.668 127.574 17.0898 128.051 17.6445C128.527 18.1992 128.879 18.8828 129.105 19.6953C129.332 20.5 129.445 21.4258 129.445 22.4727C129.445 23.5195 129.332 24.4531 129.105 25.2734C128.879 26.0859 128.527 26.7695 128.051 27.3242C127.574 27.8789 126.965 28.3008 126.223 28.5898C125.488 28.8789 124.609 29.0234 123.586 29.0234C122.562 29.0234 121.684 28.8789 120.949 28.5898C120.215 28.3008 119.605 27.8789 119.121 27.3242C118.645 26.7695 118.293 26.0859 118.066 25.2734C117.84 24.4531 117.727 23.5195 117.727 22.4727ZM123.586 26.668C124.203 26.668 124.703 26.5781 125.086 26.3984C125.469 26.2109 125.766 25.9414 125.977 25.5898C126.188 25.2305 126.328 24.793 126.398 24.2773C126.477 23.7539 126.516 23.1523 126.516 22.4727C126.516 21.8008 126.477 21.207 126.398 20.6914C126.328 20.168 126.188 19.7305 125.977 19.3789C125.766 19.0195 125.469 18.75 125.086 18.5703C124.703 18.3828 124.203 18.2891 123.586 18.2891C122.977 18.2891 122.48 18.3828 122.098 18.5703C121.715 18.75 121.414 19.0195 121.195 19.3789C120.984 19.7305 120.84 20.168 120.762 20.6914C120.691 21.207 120.656 21.8008 120.656 22.4727C120.656 23.1523 120.691 23.7539 120.762 24.2773C120.84 24.793 120.984 25.2305 121.195 25.5898C121.414 25.9414 121.715 26.2109 122.098 26.3984C122.48 26.5781 122.977 26.668 123.586 26.668Z" fill="#23262D"/>
<path d="M101.982 11.9375H107.982C108.6 11.9375 109.189 11.9805 109.752 12.0664C110.322 12.1523 110.85 12.3047 111.334 12.5234C111.818 12.7422 112.26 13.0469 112.658 13.4375C113.057 13.8281 113.396 14.3281 113.678 14.9375C113.959 15.5469 114.174 16.2812 114.322 17.1406C114.479 18 114.557 19.0078 114.557 20.1641C114.557 21.3594 114.486 22.4023 114.346 23.293C114.205 24.1758 114.002 24.9336 113.736 25.5664C113.471 26.1914 113.146 26.707 112.764 27.1133C112.381 27.5117 111.943 27.8281 111.451 28.0625C110.967 28.2891 110.432 28.4453 109.846 28.5312C109.268 28.6172 108.646 28.6602 107.982 28.6602H101.982V11.9375ZM107.221 26.0469C107.619 26.0469 108.006 26.0391 108.381 26.0234C108.756 26 109.104 25.9297 109.424 25.8125C109.752 25.6953 110.049 25.5195 110.314 25.2852C110.588 25.043 110.818 24.7031 111.006 24.2656C111.201 23.8281 111.35 23.2773 111.451 22.6133C111.561 21.9414 111.615 21.1172 111.615 20.1406C111.615 19.2344 111.564 18.4688 111.463 17.8438C111.361 17.2109 111.217 16.6875 111.029 16.2734C110.842 15.8594 110.615 15.5391 110.35 15.3125C110.092 15.0781 109.799 14.9062 109.471 14.7969C109.143 14.6797 108.787 14.6094 108.404 14.5859C108.029 14.5625 107.635 14.5508 107.221 14.5508H104.795V26.0469H107.221Z" fill="#23262D"/>
<path d="M79.9062 25.1562C79.9062 24.4531 80.0078 23.8594 80.2109 23.375C80.4219 22.8906 80.7031 22.5 81.0547 22.2031C81.4141 21.9062 81.832 21.6914 82.3086 21.5586C82.793 21.4258 83.3125 21.3594 83.8672 21.3594C84.4297 21.3594 84.9375 21.3906 85.3906 21.4531C85.8516 21.5156 86.25 21.5859 86.5859 21.6641C86.9688 21.75 87.3164 21.8477 87.6289 21.957V20.8086C87.6289 20.5195 87.6172 20.2773 87.5938 20.082C87.5781 19.8789 87.5469 19.7031 87.5 19.5547C87.4531 19.4062 87.3867 19.2812 87.3008 19.1797C87.2227 19.0781 87.125 18.9805 87.0078 18.8867C86.7578 18.707 86.4141 18.5781 85.9766 18.5C85.5391 18.4219 84.9688 18.3828 84.2656 18.3828C83.8203 18.3828 83.3867 18.3984 82.9648 18.4297C82.5508 18.4531 82.1797 18.4844 81.8516 18.5234C81.4688 18.5625 81.1055 18.6055 80.7617 18.6523V16.707C81.0742 16.582 81.4609 16.4688 81.9219 16.3672C82.3125 16.2812 82.8008 16.2031 83.3867 16.1328C83.9727 16.0547 84.668 16.0156 85.4727 16.0156C86.0117 16.0156 86.4883 16.0391 86.9023 16.0859C87.3242 16.125 87.6953 16.1953 88.0156 16.2969C88.3359 16.3984 88.6172 16.5312 88.8594 16.6953C89.1094 16.8594 89.332 17.0625 89.5273 17.3047C89.6914 17.5078 89.8281 17.7227 89.9375 17.9492C90.0469 18.1758 90.1367 18.4414 90.207 18.7461C90.2773 19.0508 90.3242 19.4023 90.3477 19.8008C90.3789 20.1914 90.3945 20.6484 90.3945 21.1719V28.6602H88.0391L87.8281 27.7461C87.4844 27.9883 87.1055 28.2031 86.6914 28.3906C86.332 28.5469 85.9102 28.6914 85.4258 28.8242C84.9492 28.957 84.4219 29.0234 83.8438 29.0234C83.1406 29.0234 82.5391 28.9531 82.0391 28.8125C81.5391 28.6719 81.1289 28.4492 80.8086 28.1445C80.4961 27.8398 80.2656 27.4414 80.1172 26.9492C79.9766 26.457 79.9062 25.8594 79.9062 25.1562ZM82.7539 25.1562C82.7539 25.5 82.7969 25.7734 82.8828 25.9766C82.9688 26.1797 83.0938 26.3359 83.2578 26.4453C83.4219 26.5469 83.6211 26.6133 83.8555 26.6445C84.0977 26.6758 84.3711 26.6914 84.6758 26.6914C85.0742 26.6914 85.4492 26.6562 85.8008 26.5859C86.1602 26.5078 86.4766 26.4258 86.75 26.3398C87.0625 26.2383 87.3555 26.1211 87.6289 25.9883V23.8438C87.3789 23.7969 87.1094 23.7539 86.8203 23.7148C86.5703 23.6758 86.2852 23.6445 85.9648 23.6211C85.6523 23.5898 85.3203 23.5742 84.9688 23.5742C84.5781 23.5742 84.2422 23.5938 83.9609 23.6328C83.6875 23.6641 83.4609 23.7383 83.2812 23.8555C83.1016 23.9648 82.9688 24.125 82.8828 24.3359C82.7969 24.5391 82.7539 24.8125 82.7539 25.1562Z" fill="#23262D"/>
<path d="M74.1699 14.1992C73.8496 14.1992 73.584 14.1758 73.373 14.1289C73.1699 14.082 73.002 14 72.8691 13.8828C72.7441 13.7656 72.6543 13.6055 72.5996 13.4023C72.5527 13.1992 72.5293 12.9375 72.5293 12.6172C72.5293 12.2969 72.5527 12.0352 72.5996 11.832C72.6543 11.6211 72.7441 11.4531 72.8691 11.3281C73.002 11.2031 73.1699 11.1172 73.373 11.0703C73.584 11.0234 73.8496 11 74.1699 11C74.4902 11 74.752 11.0234 74.9551 11.0703C75.166 11.1172 75.334 11.2031 75.459 11.3281C75.584 11.4531 75.6699 11.6211 75.7168 11.832C75.7637 12.0352 75.7871 12.2969 75.7871 12.6172C75.7871 12.9375 75.7637 13.1992 75.7168 13.4023C75.6699 13.6055 75.584 13.7656 75.459 13.8828C75.334 14 75.166 14.082 74.9551 14.1289C74.752 14.1758 74.4902 14.1992 74.1699 14.1992ZM72.7754 16.2969H75.5645V28.6602H72.7754V16.2969Z" fill="#23262D"/>
<path d="M57.3955 25.1562C57.3955 24.4531 57.4971 23.8594 57.7002 23.375C57.9111 22.8906 58.1924 22.5 58.5439 22.2031C58.9033 21.9062 59.3213 21.6914 59.7979 21.5586C60.2822 21.4258 60.8018 21.3594 61.3564 21.3594C61.9189 21.3594 62.4268 21.3906 62.8799 21.4531C63.3408 21.5156 63.7393 21.5859 64.0752 21.6641C64.458 21.75 64.8057 21.8477 65.1182 21.957V20.8086C65.1182 20.5195 65.1064 20.2773 65.083 20.082C65.0674 19.8789 65.0361 19.7031 64.9893 19.5547C64.9424 19.4062 64.876 19.2812 64.79 19.1797C64.7119 19.0781 64.6143 18.9805 64.4971 18.8867C64.2471 18.707 63.9033 18.5781 63.4658 18.5C63.0283 18.4219 62.458 18.3828 61.7549 18.3828C61.3096 18.3828 60.876 18.3984 60.4541 18.4297C60.04 18.4531 59.6689 18.4844 59.3408 18.5234C58.958 18.5625 58.5947 18.6055 58.251 18.6523V16.707C58.5635 16.582 58.9502 16.4688 59.4111 16.3672C59.8018 16.2812 60.29 16.2031 60.876 16.1328C61.4619 16.0547 62.1572 16.0156 62.9619 16.0156C63.501 16.0156 63.9775 16.0391 64.3916 16.0859C64.8135 16.125 65.1846 16.1953 65.5049 16.2969C65.8252 16.3984 66.1064 16.5312 66.3486 16.6953C66.5986 16.8594 66.8213 17.0625 67.0166 17.3047C67.1807 17.5078 67.3174 17.7227 67.4268 17.9492C67.5361 18.1758 67.626 18.4414 67.6963 18.7461C67.7666 19.0508 67.8135 19.4023 67.8369 19.8008C67.8682 20.1914 67.8838 20.6484 67.8838 21.1719V28.6602H65.5283L65.3174 27.7461C64.9736 27.9883 64.5947 28.2031 64.1807 28.3906C63.8213 28.5469 63.3994 28.6914 62.915 28.8242C62.4385 28.957 61.9111 29.0234 61.333 29.0234C60.6299 29.0234 60.0283 28.9531 59.5283 28.8125C59.0283 28.6719 58.6182 28.4492 58.2979 28.1445C57.9854 27.8398 57.7549 27.4414 57.6064 26.9492C57.4658 26.457 57.3955 25.8594 57.3955 25.1562ZM60.2432 25.1562C60.2432 25.5 60.2861 25.7734 60.3721 25.9766C60.458 26.1797 60.583 26.3359 60.7471 26.4453C60.9111 26.5469 61.1104 26.6133 61.3447 26.6445C61.5869 26.6758 61.8604 26.6914 62.165 26.6914C62.5635 26.6914 62.9385 26.6562 63.29 26.5859C63.6494 26.5078 63.9658 26.4258 64.2393 26.3398C64.5518 26.2383 64.8447 26.1211 65.1182 25.9883V23.8438C64.8682 23.7969 64.5986 23.7539 64.3096 23.7148C64.0596 23.6758 63.7744 23.6445 63.4541 23.6211C63.1416 23.5898 62.8096 23.5742 62.458 23.5742C62.0674 23.5742 61.7314 23.5938 61.4502 23.6328C61.1768 23.6641 60.9502 23.7383 60.7705 23.8555C60.5908 23.9648 60.458 24.125 60.3721 24.3359C60.2861 24.5391 60.2432 24.8125 60.2432 25.1562Z" fill="#23262D"/>
<path d="M37 11.9375H41.875L44.9688 22.0156H45.0625L48.2617 11.9375H53.0547V28.6602H50.2539V14.5508H50.1836L49.8672 15.6055C49.7812 15.9023 49.6875 16.2148 49.5859 16.543C49.4844 16.8633 49.3945 17.1406 49.3164 17.375L47.1602 24.125H42.9531L40.75 17.3281C40.6719 17.0938 40.582 16.8203 40.4805 16.5078C40.3789 16.1875 40.2852 15.8828 40.1992 15.5938C40.0977 15.2578 39.9922 14.9102 39.8828 14.5508H39.8125V28.6602H37V11.9375Z" fill="#23262D"/>
<defs>
<linearGradient id="paint0_linear_577_209" x1="-0.00047342" y1="9.15017" x2="23.0895" y2="32.5502" gradientUnits="userSpaceOnUse">
<stop stop-color="#FCECC5"/>
<stop offset="1" stop-color="#EEBD52"/>
</linearGradient>
<clipPath id="clip0_577_209">
<rect width="30" height="30" fill="white" transform="translate(0 5)"/>
</clipPath>
</defs>
</svg>
