<svg width="800" height="800" viewBox="0 0 800 800" fill="none" xmlns="http://www.w3.org/2000/svg">
<g clip-path="url(#clip0_576_194)">
<path d="M0 115.2C0 51.5768 51.5768 0 115.2 0H684.8C748.423 0 800 51.5768 800 115.2V684.8C800 748.423 748.423 800 684.8 800H115.2C51.5768 800 0 748.423 0 684.8V115.2Z" fill="black"/>
<path d="M163.902 176.338C163.902 163.767 153.711 153.575 141.139 153.575C128.567 153.575 118.375 163.767 118.375 176.338C118.375 188.91 128.567 199.102 141.139 199.102V214.277C120.186 214.277 103.2 197.292 103.2 176.338C103.2 155.386 120.186 138.4 141.139 138.4C162.092 138.4 179.078 155.386 179.078 176.338C179.078 197.292 162.092 214.277 141.139 214.277V199.102C153.711 199.102 163.902 188.91 163.902 176.338Z" fill="white"/>
<path d="M327.8 341.236C327.8 328.665 317.608 318.473 305.036 318.473C292.465 318.473 282.273 328.665 282.273 341.236C282.273 353.808 292.465 364 305.036 364V379.175C284.083 379.175 267.098 362.19 267.098 341.236C267.098 320.283 284.083 303.298 305.036 303.298C325.99 303.298 342.975 320.283 342.975 341.236C342.975 362.19 325.99 379.175 305.036 379.175V364C317.608 364 327.8 353.808 327.8 341.236Z" fill="white"/>
<path d="M346.604 524.937C346.604 512.366 336.413 502.174 323.841 502.174C311.27 502.174 301.078 512.366 301.078 524.937C301.078 537.509 311.27 547.701 323.841 547.701V562.877C302.888 562.877 285.902 545.891 285.902 524.937C285.902 503.985 302.888 486.999 323.841 486.999C344.794 486.999 361.78 503.985 361.78 524.937C361.78 545.891 344.794 562.877 323.841 562.877V547.701C336.413 547.701 346.604 537.509 346.604 524.937Z" fill="white"/>
<path d="M543.426 622.862C543.426 610.29 533.234 600.098 520.663 600.098C508.091 600.098 497.9 610.29 497.9 622.862C497.9 635.433 508.091 645.625 520.663 645.625V660.8C499.709 660.8 482.724 643.814 482.724 622.862C482.724 601.908 499.709 584.922 520.663 584.922C541.616 584.922 558.601 601.908 558.601 622.862C558.601 643.814 541.616 660.8 520.663 660.8V645.625C533.234 645.625 543.426 635.433 543.426 622.862Z" fill="white"/>
<path d="M681.625 455.412C681.625 442.84 671.433 432.649 658.862 432.649C646.29 432.649 636.099 442.84 636.099 455.412C636.099 467.984 646.29 478.175 658.862 478.175V493.351C637.908 493.351 620.923 476.365 620.923 455.412C620.923 434.459 637.908 417.474 658.862 417.474C679.815 417.474 696.8 434.459 696.8 455.412C696.8 476.365 679.815 493.351 658.862 493.351V478.175C671.433 478.175 681.625 467.984 681.625 455.412Z" fill="white"/>
<path d="M665.656 348.891C665.656 336.319 655.465 326.128 642.893 326.128C630.321 326.128 620.13 336.319 620.13 348.891C620.13 361.463 630.321 371.655 642.893 371.655V386.83C621.941 386.83 604.954 369.844 604.954 348.891C604.954 327.939 621.941 310.952 642.893 310.952C663.846 310.952 680.832 327.939 680.832 348.891C680.832 369.844 663.846 386.83 642.893 386.83V371.655C655.465 371.655 665.656 361.463 665.656 348.891Z" fill="white"/>
<path d="M584.798 425.433C584.798 412.861 574.606 402.67 562.035 402.67C549.463 402.67 539.272 412.861 539.271 425.433C539.271 438.005 549.463 448.196 562.035 448.196V463.371C541.081 463.371 524.096 446.386 524.096 425.433C524.096 404.48 541.081 387.495 562.035 387.495C582.988 387.495 599.973 404.48 599.973 425.433C599.973 446.386 582.988 463.371 562.035 463.371V448.196C574.606 448.196 584.798 438.005 584.798 425.433Z" fill="white"/>
<path d="M637.829 467.901L649.372 477.719L549.496 599.319L537.953 589.502L637.829 467.901Z" fill="white"/>
<path d="M615.059 365.842L625.401 376.959L588.986 412.041L578.644 400.924L615.059 365.842Z" fill="white"/>
<path d="M527.266 432.311L532.967 446.478L358.941 518.982L353.241 504.816L527.266 432.311Z" fill="white"/>
<path d="M299.932 372.055L314.9 370.524L327.438 497.455L312.47 498.986L299.932 372.055Z" fill="white"/>
<path d="M158.404 207.297L169.015 196.445L288.983 317.922L278.371 328.773L158.404 207.297Z" fill="white"/>
<path d="M641.063 381.627L655.884 379.001L662.982 420.475L648.161 423.101L641.063 381.627Z" fill="white"/>
</g>
<defs>
<clipPath id="clip0_576_194">
<rect width="800" height="800" fill="white"/>
</clipPath>
</defs>
</svg>
